<?xml version="1.0" standalone="no"?>
<!DOCTYPE svg PUBLIC "-//W3C//DTD SVG 20010904//EN"
 "http://www.w3.org/TR/2001/REC-SVG-20010904/DTD/svg10.dtd">
<svg version="1.0" xmlns="http://www.w3.org/2000/svg"
 width="700.000000pt" height="700.000000pt" viewBox="0 0 700.000000 700.000000"
 preserveAspectRatio="xMidYMid meet">
<metadata>
Created by potrace 1.11, written by Peter Selinger 2001-2013
</metadata>
<g transform="translate(0.000000,700.000000) scale(0.100000,-0.100000)"
fill="#000000" stroke="none">
<path d="M3360 6994 c-759 -50 -1417 -341 -1930 -854 -322 -321 -532 -658
-687 -1100 -198 -565 -257 -1147 -173 -1716 52 -352 158 -700 300 -985 326
-650 904 -1264 1626 -1727 390 -251 758 -420 1217 -562 l159 -48 -129 131
c-275 282 -562 598 -729 802 -184 226 -354 485 -308 472 254 -76 521 -111 844
-111 202 1 270 5 390 23 476 73 879 225 1250 473 228 153 497 399 663 608 329
413 525 882 598 1430 17 127 17 497 0 630 -81 633 -342 1181 -776 1629 -148
153 -281 268 -434 375 -539 377 -1231 572 -1881 530z"/>
</g>
</svg>
